# xmcd
# 
# Track frame offsets:
#     150
#     18666
#     36672
#     53001
#     67743
#     87987
#     108543
#     126561
#     141511
#     181021
#     201859
#     219632
#     244391
#     274801
# 
# Disc length: 3935
# 
# Revision: 0
# Processed by: cddbd v1.5.2PL0 Copyright (c) Steve Scherf et al.
# Submitted via: fre:ac v1.0.17
# 
DISCID=dc0f5d0e
DTITLE=Bluesgosch - Leif in de "Pfalz"
DYEAR=0
DGENRE=Blues
TTITLE0=Begr¸ﬂung
TTITLE1=Summerzeit
TTITLE2=Gloobabier
TTITLE3=Laaf mit moinem M‰dl
TTITLE4=Ausgeflippt Fraa
TTITLE5=Soggew‰scher
TTITLE6=Du reddscht so viel
TTITLE7=Uff de L‰‰der
TTITLE8=GPS Gospel
TTITLE9=Muss die Mussig immer...
TTITLE10=Lied vum L‰‰we
TTITLE11=Schnarcher Boogy
TTITLE12=Hoiner
TTITLE13=Schlusslied
EXTD=
EXTT0=
EXTT1=
EXTT2=
EXTT3=
EXTT4=
EXTT5=
EXTT6=
EXTT7=
EXTT8=
EXTT9=
EXTT10=
EXTT11=
EXTT12=
EXTT13=
PLAYORDER=
